<svg width="284" height="270" viewBox="0 0 284 270" fill="none" xmlns="http://www.w3.org/2000/svg">
<g clip-path="url(#clip0_122_263)">
<path d="M226.196 191.831C226.196 191.831 261.331 193.678 253.147 204.921C244.963 216.164 223.46 198.326 223.46 198.326L226.196 191.831Z" fill="#FFB8B8"/>
<path d="M161.449 84.7428L168.6 86.5602C168.6 86.5602 172.772 99.2821 175.752 110.792C178.731 122.303 184.691 156.834 184.691 156.834L230.894 189.749L225.383 202.28L163.833 177.621L150.125 122.908L161.449 84.7428Z" fill="#575A89"/>
<path opacity="0.2" d="M168.177 107.324L165.512 164.064L171.074 180.933L154.781 168.788L168.177 107.324Z" fill="black"/>
<path d="M177.838 208.024C177.838 208.024 185.585 229.227 186.777 243.766C187.969 258.306 189.161 269.816 189.161 269.816H152.807L145.656 258.912V269.816H103.343C103.343 269.816 91.424 230.439 96.1916 225.592C100.959 220.746 146.252 200.148 146.252 200.148L177.838 208.024Z" fill="#2F2E41"/>
<path d="M247.107 269.264H36.7493V270H247.107V269.264Z" fill="#3F3D56"/>
<path d="M132.247 61.7223C144.754 61.7223 154.893 51.4156 154.893 38.7017C154.893 25.9878 144.754 15.6812 132.247 15.6812C119.74 15.6812 109.601 25.9878 109.601 38.7017C109.601 51.4156 119.74 61.7223 132.247 61.7223Z" fill="#FFB8B8"/>
<path d="M114.964 48.3946L113.176 75.0499L135.823 105.946L147.146 76.8673C147.146 76.8673 137.014 70.2035 142.974 56.27L114.964 48.3946Z" fill="#FFB8B8"/>
<path d="M181.114 213.173C181.114 218.627 166.215 227.107 166.215 227.107V230.136L160.255 233.165L147.145 206.511L143.572 235.587C143.572 235.587 117.348 239.83 109.006 235.587C100.66 231.347 96.4892 233.165 84.5701 228.925C72.6511 224.685 89.3385 167.738 89.3385 167.738L77.4194 79.8963L103.459 66.6615L104.831 65.9622L108.412 65.2923L113.901 64.2618L132.246 76.8673L133.724 84.7435L134.632 89.5906L139.397 84.1362L142.996 72.1048L168.601 86.5616L161.45 144.716C161.45 144.716 181.114 207.722 181.114 213.173Z" fill="#575A89"/>
<path d="M93.5098 231.953C93.5098 231.953 120.924 254.368 107.813 258.609C94.7018 262.849 87.5503 235.588 87.5503 235.588L93.5098 231.953Z" fill="#FFB8B8"/>
<path d="M83.3785 81.108L77.419 79.8964C77.419 79.8964 68.4796 84.7428 67.8837 94.4357C67.2877 104.129 59.5403 171.979 59.5403 171.979L84.5704 240.434L104.833 232.559L85.1664 168.344L100.065 112.61L83.3785 81.108Z" fill="#575A89"/>
<path d="M134.868 99.5953C136.067 99.5953 137.04 98.6067 137.04 97.3871C137.04 96.1675 136.067 95.1788 134.868 95.1788C133.668 95.1788 132.695 96.1675 132.695 97.3871C132.695 98.6067 133.668 99.5953 134.868 99.5953Z" fill="#2F2E41"/>
<path d="M134.868 113.949C136.067 113.949 137.04 112.96 137.04 111.741C137.04 110.521 136.067 109.533 134.868 109.533C133.668 109.533 132.695 110.521 132.695 111.741C132.695 112.96 133.668 113.949 134.868 113.949Z" fill="#2F2E41"/>
<path d="M147.178 208.537C148.378 208.537 149.35 207.548 149.35 206.328C149.35 205.109 148.378 204.12 147.178 204.12C145.978 204.12 145.006 205.109 145.006 206.328C145.006 207.548 145.978 208.537 147.178 208.537Z" fill="#2F2E41"/>
<path d="M113.127 15.1182L108.941 13.4145C108.941 13.4145 117.694 3.61853 129.872 4.47038L126.447 0.637147C126.447 0.637147 134.82 -2.77012 142.431 6.17401C146.432 10.8757 151.062 16.4024 153.948 22.6281H158.431L156.56 26.8162L163.109 31.0043L156.387 30.252C156.787 32.5455 156.849 34.8869 156.569 37.1988C156.281 39.5114 155.12 41.6197 153.331 43.0787C153.331 43.0787 148.14 32.1546 148.14 30.451V34.7101C148.14 34.7101 143.953 30.8769 143.953 28.3214L141.67 31.3028H126.447L128.73 27.4696L119.977 28.7473L123.402 24.0623L109.85 43.4085C109.85 43.4085 102.09 21.5068 113.127 15.1182Z" fill="#2F2E41"/>
<path d="M247.794 177.966C267.79 177.966 284 161.488 284 141.162C284 120.835 267.79 104.357 247.794 104.357C227.798 104.357 211.588 120.835 211.588 141.162C211.588 161.488 227.798 177.966 247.794 177.966Z" fill="#3F3D56"/>
<path opacity="0.1" d="M247.794 172.814C264.99 172.814 278.931 158.643 278.931 141.162C278.931 123.681 264.99 109.51 247.794 109.51C230.597 109.51 216.656 123.681 216.656 141.162C216.656 158.643 230.597 172.814 247.794 172.814Z" fill="black"/>
<path d="M246.302 159.839V155.232C244.011 155.187 241.641 154.366 240.259 153.225L241.206 150.169C242.849 151.421 244.841 152.108 246.894 152.131C249.699 152.131 251.595 150.261 251.595 147.661C251.595 145.152 250.054 143.601 247.131 142.233C243.102 140.408 240.614 138.31 240.614 134.342C240.614 130.556 242.944 127.682 246.578 126.998V122.391H249.027V126.816C250.853 126.841 252.634 127.395 254.162 128.412L253.174 131.423C251.709 130.403 249.973 129.862 248.198 129.872C245.156 129.872 244.011 131.97 244.011 133.795C244.011 136.166 245.472 137.352 248.909 138.994C252.977 140.91 255.031 143.282 255.031 147.341C255.031 150.945 252.858 154.32 248.79 155.095V159.839H246.302Z" fill="#2BA35A"/>
<path opacity="0.2" d="M90.5171 185.815L104.998 231.796L93.4118 183.95L90.5171 185.815Z" fill="black"/>
<path d="M16.6886 95.9873H7.49709C7.09648 95.9868 6.71241 95.8249 6.42914 95.5369C6.14587 95.2489 5.98653 94.8585 5.98608 94.4513V81.0202C5.98653 80.6129 6.14587 80.2225 6.42914 79.9346C6.71241 79.6466 7.09648 79.4846 7.49709 79.4842H16.6886C17.0892 79.4846 17.4733 79.6466 17.7566 79.9346C18.0399 80.2225 18.1992 80.6129 18.1996 81.0202V94.4513C18.1992 94.8585 18.0399 95.2489 17.7566 95.5369C17.4733 95.8249 17.0892 95.9868 16.6886 95.9873ZM7.49709 80.2203C7.28847 80.2205 7.08847 80.3049 6.94096 80.4548C6.79344 80.6048 6.71046 80.8081 6.71021 81.0202V94.4513C6.71046 94.6634 6.79344 94.8667 6.94096 95.0166C7.08847 95.1666 7.28847 95.2509 7.49709 95.2512H16.6886C16.8973 95.2509 17.0972 95.1666 17.2448 95.0166C17.3923 94.8667 17.4753 94.6634 17.4755 94.4513V81.0202C17.4753 80.8081 17.3923 80.6048 17.2448 80.4548C17.0972 80.3049 16.8973 80.2205 16.6886 80.2203H7.49709Z" fill="#3F3D56"/>
<path d="M33.4773 95.9873H25.1767C24.658 95.9866 24.1607 95.7769 23.7939 95.4041C23.4272 95.0312 23.2208 94.5257 23.2202 93.9984V66.8738C23.2208 66.3465 23.4272 65.841 23.7939 65.4682C24.1607 65.0953 24.658 64.8856 25.1767 64.885H33.4773C33.996 64.8856 34.4933 65.0953 34.8601 65.4682C35.2268 65.841 35.4332 66.3465 35.4338 66.8738V93.9984C35.4332 94.5257 35.2268 95.0312 34.8601 95.4041C34.4933 95.7769 33.996 95.9866 33.4773 95.9873ZM25.1767 65.6211C24.85 65.6214 24.5367 65.7535 24.3057 65.9884C24.0747 66.2232 23.9447 66.5417 23.9443 66.8738V93.9984C23.9447 94.3306 24.0747 94.649 24.3057 94.8838C24.5367 95.1187 24.85 95.2508 25.1767 95.2512H33.4773C33.804 95.2508 34.1173 95.1187 34.3483 94.8838C34.5793 94.649 34.7093 94.3306 34.7097 93.9984V66.8738C34.7093 66.5417 34.5793 66.2233 34.3483 65.9884C34.1173 65.7535 33.804 65.6214 33.4773 65.6211L25.1767 65.6211Z" fill="#3F3D56"/>
<path d="M50.3909 95.9873H42.7314C42.1277 95.9866 41.5489 95.7425 41.122 95.3086C40.6952 94.8746 40.455 94.2863 40.4543 93.6726V53.7685C40.455 53.1548 40.6952 52.5665 41.122 52.1326C41.5489 51.6986 42.1277 51.4546 42.7314 51.4539H50.3909C50.9946 51.4546 51.5733 51.6986 52.0002 52.1326C52.4271 52.5665 52.6672 53.1548 52.6679 53.7685V93.6726C52.6672 94.2863 52.4271 94.8746 52.0002 95.3086C51.5733 95.7425 50.9946 95.9866 50.3909 95.9873ZM42.7314 52.1899C42.3197 52.1904 41.9249 52.3569 41.6338 52.6528C41.3427 52.9488 41.1789 53.35 41.1785 53.7685V93.6726C41.1789 94.0911 41.3427 94.4924 41.6338 94.7883C41.9249 95.0842 42.3197 95.2507 42.7314 95.2512H50.3909C50.8026 95.2507 51.1973 95.0842 51.4884 94.7883C51.7796 94.4924 51.9433 94.0911 51.9438 93.6726V53.7685C51.9433 53.35 51.7796 52.9488 51.4884 52.6528C51.1973 52.3569 50.8026 52.1904 50.3909 52.1899H42.7314Z" fill="#3F3D56"/>
<path d="M15.5396 82.0421H8.646V93.4293H15.5396V82.0421Z" fill="#2BA35A"/>
<path d="M32.7738 67.5889H25.8801V93.4293H32.7738V67.5889Z" fill="#2BA35A"/>
<path d="M50.0079 54.1578H43.1143V93.4294H50.0079V54.1578Z" fill="#2BA35A"/>
<path d="M261.77 53.6621H213.616C213.569 53.6621 213.522 53.6526 213.478 53.6341C213.434 53.6156 213.394 53.5885 213.36 53.5543C213.327 53.5202 213.3 53.4796 213.282 53.4349C213.263 53.3903 213.254 53.3424 213.254 53.2941V3.60803C213.254 3.51042 213.292 3.41681 213.36 3.34779C213.428 3.27877 213.52 3.23999 213.616 3.23999C213.712 3.23999 213.804 3.27877 213.872 3.34779C213.94 3.41681 213.978 3.51042 213.978 3.60803V52.926H261.77C261.866 52.926 261.958 52.9648 262.026 53.0338C262.094 53.1028 262.132 53.1964 262.132 53.2941C262.132 53.3917 262.094 53.4853 262.026 53.5543C261.958 53.6233 261.866 53.6621 261.77 53.6621Z" fill="#3F3D56"/>
<path d="M57.5677 101.14H0.362061C0.314511 101.14 0.267426 101.13 0.223493 101.112C0.17956 101.093 0.13964 101.066 0.106017 101.032C0.0723944 100.998 0.0457256 100.957 0.0275347 100.913C0.0093438 100.868 -1.23556e-05 100.82 1.22457e-08 100.772V42.9888C1.22457e-08 42.8912 0.0381454 42.7976 0.106045 42.7286C0.173945 42.6596 0.266037 42.6208 0.362061 42.6208C0.458086 42.6208 0.550178 42.6596 0.618078 42.7286C0.685977 42.7976 0.724123 42.8912 0.724123 42.9888V100.404H57.5677C57.6638 100.404 57.7559 100.443 57.8238 100.512C57.8917 100.581 57.9298 100.674 57.9298 100.772C57.9298 100.869 57.8917 100.963 57.8238 101.032C57.7559 101.101 57.6638 101.14 57.5677 101.14Z" fill="#3F3D56"/>
<path d="M230.234 49.0495H221.043C220.642 49.0491 220.258 48.8872 219.975 48.5992C219.691 48.3112 219.532 47.9208 219.531 47.5135V34.0824C219.532 33.6752 219.691 33.2847 219.975 32.9968C220.258 32.7088 220.642 32.5469 221.043 32.5464H230.234C230.635 32.5469 231.019 32.7089 231.302 32.9969C231.585 33.2848 231.745 33.6752 231.745 34.0824V47.5136C231.745 47.9208 231.585 48.3111 231.302 48.5991C231.019 48.887 230.635 49.049 230.234 49.0495ZM221.043 33.2825C220.834 33.2828 220.634 33.3671 220.486 33.5171C220.339 33.667 220.256 33.8703 220.256 34.0824V47.5136C220.256 47.7256 220.339 47.929 220.486 48.0789C220.634 48.2288 220.834 48.3132 221.043 48.3134H230.234C230.443 48.3132 230.643 48.2288 230.79 48.0789C230.938 47.9289 231.021 47.7256 231.021 47.5136V34.0824C231.021 33.8704 230.938 33.6671 230.79 33.5171C230.643 33.3672 230.443 33.2828 230.234 33.2825H221.043Z" fill="#3F3D56"/>
<path d="M249.057 49.0495H240.597C240.1 49.0489 239.623 48.8477 239.271 48.49C238.919 48.1323 238.721 47.6474 238.721 47.1415V22.8139C238.721 22.3081 238.919 21.8232 239.271 21.4655C239.623 21.1079 240.1 20.9067 240.597 20.9061H249.057C249.555 20.9067 250.032 21.1079 250.384 21.4655C250.736 21.8232 250.934 22.3081 250.934 22.8139V47.1415C250.934 47.6474 250.736 48.1323 250.384 48.49C250.032 48.8477 249.555 49.0489 249.057 49.0495ZM240.597 21.6422C240.292 21.6425 239.999 21.7661 239.783 21.9858C239.567 22.2054 239.445 22.5033 239.445 22.8139V47.1415C239.445 47.4522 239.567 47.7501 239.783 47.9698C239.999 48.1895 240.292 48.3131 240.597 48.3134H249.057C249.363 48.3131 249.656 48.1895 249.872 47.9698C250.088 47.7501 250.21 47.4522 250.21 47.1415V22.8139C250.21 22.5033 250.088 22.2054 249.872 21.9858C249.656 21.7661 249.363 21.6425 249.057 21.6422H240.597Z" fill="#3F3D56"/>
<path d="M228.92 35.2318H222.026V46.6191H228.92V35.2318Z" fill="#2BA35A"/>
<path d="M248.274 23.9616H241.381V45.9941H248.274V23.9616Z" fill="#2BA35A"/>
<path d="M225.564 28.6351C227.364 28.6351 228.823 27.1521 228.823 25.3227C228.823 23.4933 227.364 22.0103 225.564 22.0103C223.765 22.0103 222.306 23.4933 222.306 25.3227C222.306 27.1521 223.765 28.6351 225.564 28.6351Z" fill="#2BA35A"/>
<path d="M244.753 16.1216C246.553 16.1216 248.012 14.6386 248.012 12.8092C248.012 10.9798 246.553 9.49677 244.753 9.49677C242.954 9.49677 241.495 10.9798 241.495 12.8092C241.495 14.6386 242.954 16.1216 244.753 16.1216Z" fill="#2BA35A"/>
</g>
<defs>
<clipPath id="clip0_122_263">
<rect width="284" height="270" fill="white"/>
</clipPath>
</defs>
</svg>
