<svg width="472" height="318" viewBox="0 0 472 318" fill="none" xmlns="http://www.w3.org/2000/svg">
<path d="M284.803 281.545L267.778 286.565L284.927 274.975C284.558 256.499 278.69 237.34 278.69 237.34C278.69 237.34 242.041 249.009 232.422 269.215C222.804 289.421 230.375 302.761 243.858 310.513C257.34 318.266 271.628 317.495 281.247 297.289C283.388 292.791 284.447 287.325 284.803 281.545Z" fill="#F2F2F2"/>
<path d="M264.523 285.495L264.049 286.491C258.484 298.037 252.408 306.049 245.894 310.405C245.8 310.471 245.704 310.528 245.61 310.594L245.344 310.108L245.094 309.637C252.231 304.993 258.22 296.071 263.076 286.001C263.236 285.678 263.398 285.35 263.55 285.018C265.572 280.735 267.393 276.274 269.011 271.854C269.139 271.513 269.265 271.164 269.391 270.816C271.499 264.97 273.258 259.235 274.667 254.186C274.768 253.83 274.864 253.471 274.959 253.117C277.312 244.56 278.617 238.132 278.897 236.704C278.934 236.531 278.952 236.434 278.956 236.412L279.446 236.524L279.453 236.521L279.947 236.636C279.942 236.658 279.885 236.983 279.761 237.578C279.312 239.806 278.036 245.824 275.933 253.52C275.836 253.866 275.74 254.225 275.639 254.582C274.499 258.681 273.137 263.211 271.546 267.873C271.148 269.044 270.744 270.194 270.333 271.32C270.212 271.671 270.086 272.02 269.958 272.361C268.209 277.139 266.398 281.517 264.523 285.495Z" fill="white"/>
<path d="M275.933 253.52C275.611 253.391 275.285 253.26 274.959 253.117C274.073 252.729 273.206 252.291 272.36 251.805C268.756 249.739 265.62 246.811 263.182 243.237C262.869 243.39 262.556 243.543 262.237 243.698C264.782 247.498 268.084 250.608 271.891 252.791C272.793 253.31 273.72 253.775 274.667 254.186C274.988 254.327 275.314 254.458 275.639 254.582C278.306 255.617 281.101 256.202 283.928 256.315C283.864 255.933 283.802 255.558 283.743 255.191C281.079 255.06 278.447 254.497 275.933 253.52Z" fill="white"/>
<path d="M270.333 271.32C270.014 271.162 269.7 270.994 269.391 270.816C269.294 270.767 269.195 270.71 269.101 270.656C265.199 268.412 261.848 265.164 259.334 261.19C256.82 257.215 255.218 252.631 254.665 247.829C254.347 248.017 254.029 248.204 253.713 248.4C254.341 253.298 256.022 257.961 258.616 262.003C261.211 266.045 264.644 269.349 268.632 271.642C268.757 271.714 268.883 271.786 269.011 271.854C269.327 272.029 269.642 272.198 269.958 272.361C274.877 274.845 280.342 275.72 285.701 274.881C285.696 274.508 285.691 274.134 285.682 273.758C280.459 274.604 275.125 273.757 270.333 271.32Z" fill="white"/>
<path d="M264.523 285.495C264.195 285.344 263.872 285.183 263.551 285.018C263.207 284.839 262.866 284.655 262.529 284.462C257.289 281.44 253.079 276.634 250.532 270.763C247.984 264.892 247.236 258.272 248.398 251.894C248.006 252.177 247.616 252.456 247.233 252.744C246.264 259.216 247.174 265.86 249.836 271.73C252.497 277.601 256.775 282.401 262.06 285.448C262.396 285.641 262.735 285.83 263.077 286.001C263.4 286.174 263.723 286.335 264.049 286.491C270.652 289.593 278.081 289.821 284.831 287.13C284.91 286.711 284.974 286.289 285.04 285.862C278.418 288.676 271.059 288.545 264.523 285.495Z" fill="white"/>
<path d="M61.2235 283.298L78.249 288.317L61.1003 276.728C61.4692 258.251 67.337 239.093 67.337 239.093C67.337 239.093 103.986 250.761 113.605 270.968C123.223 291.174 115.652 304.514 102.169 312.266C88.6867 320.018 74.3985 319.247 64.7798 299.041C62.6389 294.544 61.5796 289.078 61.2235 283.298Z" fill="#F2F2F2"/>
<path d="M81.5038 287.248L81.978 288.244C87.5428 299.79 93.6193 307.802 100.133 312.158C100.227 312.223 100.323 312.281 100.417 312.346L100.683 311.86L100.933 311.39C93.7964 306.745 87.8066 297.823 82.9504 287.754C82.791 287.431 82.6293 287.103 82.4765 286.77C80.455 282.487 78.6344 278.027 77.016 273.606C76.888 273.265 76.7621 272.917 76.6363 272.569C74.5275 266.722 72.7694 260.988 71.3602 255.939C71.2591 255.582 71.1625 255.223 71.0683 254.869C68.7149 246.312 67.4095 239.885 67.1297 238.457C67.0928 238.283 67.0754 238.186 67.0705 238.164L66.5809 238.276L66.574 238.274L66.08 238.388C66.0849 238.411 66.1424 238.735 66.2656 239.33C66.715 241.559 67.9909 247.577 70.0944 255.272C70.1907 255.619 70.2873 255.978 70.3884 256.334C71.5281 260.433 72.8902 264.963 74.4809 269.625C74.8787 270.797 75.2829 271.946 75.6935 273.073C75.8149 273.424 75.9407 273.772 76.0687 274.113C77.8177 278.892 79.6294 283.27 81.5038 287.248Z" fill="white"/>
<path d="M62.2842 256.943C62.2246 257.311 62.1629 257.685 62.0991 258.067C64.9261 257.954 67.7211 257.37 70.3885 256.334C70.7126 256.211 71.0388 256.08 71.3603 255.939C72.3073 255.528 73.2339 255.062 74.1361 254.544C77.9426 252.361 81.2447 249.25 83.7904 245.451C83.4708 245.295 83.158 245.142 82.8452 244.989C80.4074 248.564 77.2708 251.492 73.6667 253.558C72.8215 254.043 71.9543 254.481 71.0683 254.87C70.7424 255.013 70.4162 255.144 70.0945 255.272C67.5801 256.249 64.9483 256.812 62.2842 256.943Z" fill="white"/>
<path d="M60.3454 275.511C60.3359 275.887 60.3308 276.26 60.3257 276.634C65.6847 277.473 71.1502 276.598 76.0687 274.113C76.3853 273.95 76.6996 273.782 77.016 273.606C77.1439 273.539 77.2695 273.467 77.3952 273.395C81.383 271.101 84.8163 267.797 87.4107 263.755C90.0051 259.713 91.686 255.05 92.3141 250.152C91.9983 249.957 91.6804 249.769 91.3624 249.581C90.8088 254.384 89.2069 258.967 86.6931 262.942C84.1793 266.917 80.8283 270.165 76.9257 272.408C76.8315 272.463 76.7328 272.519 76.6363 272.569C76.3267 272.747 76.0124 272.915 75.6935 273.073C70.9023 275.51 65.5683 276.357 60.3454 275.511Z" fill="white"/>
<path d="M60.9871 287.615C61.0531 288.041 61.1167 288.463 61.1962 288.882C67.9464 291.574 75.3751 291.346 81.978 288.244C82.3038 288.088 82.6272 287.927 82.9504 287.754C83.2918 287.583 83.6306 287.394 83.9671 287.2C89.2523 284.154 93.5296 279.354 96.1912 273.483C98.8528 267.612 99.7634 260.969 98.7936 254.497C98.4106 254.208 98.0209 253.93 97.6289 253.646C98.7912 260.024 98.0426 266.644 95.4952 272.515C92.9477 278.386 88.7385 283.193 83.4977 286.214C83.1612 286.408 82.82 286.591 82.4765 286.77C82.1554 286.936 81.832 287.097 81.5039 287.248C74.9685 290.297 67.6092 290.429 60.9871 287.615Z" fill="white"/>
<path d="M141.045 297.447L151.181 300.435L140.972 293.535C141.191 282.536 144.685 271.13 144.685 271.13C144.685 271.13 166.503 278.077 172.229 290.106C177.955 302.136 173.448 310.077 165.421 314.692C157.395 319.307 148.889 318.848 143.162 306.819C141.888 304.142 141.257 300.888 141.045 297.447Z" fill="#F2F2F2"/>
<path d="M153.119 299.798L153.401 300.391C156.714 307.265 160.331 312.034 164.209 314.628C164.265 314.667 164.322 314.701 164.378 314.74L164.536 314.451L164.685 314.171C160.437 311.405 156.871 306.094 153.98 300.099C153.885 299.907 153.789 299.712 153.698 299.514C152.494 296.964 151.41 294.309 150.447 291.677C150.371 291.474 150.296 291.267 150.221 291.059C148.965 287.579 147.919 284.165 147.08 281.159C147.02 280.947 146.962 280.733 146.906 280.523C145.505 275.428 144.728 271.602 144.561 270.752C144.539 270.648 144.529 270.591 144.526 270.577L144.234 270.644L144.23 270.643L143.936 270.711C143.939 270.724 143.973 270.918 144.047 271.272C144.314 272.598 145.074 276.181 146.326 280.762C146.384 280.969 146.441 281.183 146.501 281.395C147.18 283.835 147.991 286.532 148.938 289.307C149.174 290.005 149.415 290.689 149.659 291.36C149.732 291.569 149.807 291.776 149.883 291.979C150.924 294.824 152.003 297.43 153.119 299.798Z" fill="white"/>
<path d="M141.676 281.757C141.641 281.976 141.604 282.199 141.566 282.426C143.249 282.359 144.913 282.011 146.501 281.395C146.694 281.321 146.888 281.243 147.08 281.159C147.643 280.915 148.195 280.637 148.732 280.329C150.998 279.029 152.964 277.177 154.48 274.915C154.289 274.823 154.103 274.732 153.917 274.641C152.466 276.769 150.598 278.512 148.453 279.742C147.95 280.031 147.433 280.291 146.906 280.523C146.712 280.608 146.518 280.686 146.326 280.762C144.829 281.344 143.262 281.679 141.676 281.757Z" fill="white"/>
<path d="M140.522 292.811C140.517 293.035 140.514 293.257 140.511 293.479C143.701 293.979 146.955 293.458 149.883 291.979C150.071 291.882 150.258 291.782 150.447 291.677C150.523 291.637 150.598 291.594 150.673 291.551C153.047 290.186 155.091 288.219 156.635 285.812C158.18 283.406 159.18 280.63 159.554 277.714C159.366 277.598 159.177 277.486 158.988 277.374C158.658 280.233 157.704 282.962 156.208 285.328C154.711 287.695 152.716 289.628 150.393 290.964C150.337 290.996 150.278 291.03 150.221 291.059C150.036 291.165 149.849 291.265 149.659 291.36C146.807 292.81 143.632 293.315 140.522 292.811Z" fill="white"/>
<path d="M140.904 300.017C140.944 300.271 140.982 300.522 141.029 300.771C145.047 302.374 149.47 302.238 153.401 300.391C153.595 300.298 153.787 300.203 153.98 300.099C154.183 299.998 154.385 299.885 154.585 299.77C157.731 297.956 160.278 295.099 161.862 291.604C163.447 288.109 163.989 284.154 163.412 280.301C163.183 280.129 162.952 279.963 162.718 279.794C163.41 283.591 162.964 287.532 161.448 291.028C159.931 294.523 157.425 297.384 154.305 299.183C154.105 299.298 153.902 299.407 153.698 299.514C153.506 299.613 153.314 299.708 153.118 299.798C149.228 301.614 144.847 301.692 140.904 300.017Z" fill="white"/>
<path d="M343.495 196.316L343.452 196.312C335.39 194.849 326.434 194.85 316.073 196.314H316.069C315.811 196.317 315.554 196.264 315.314 196.158C315.075 196.052 314.856 195.895 314.672 195.696C314.488 195.496 314.341 195.259 314.241 194.997C314.14 194.735 314.088 194.454 314.087 194.17V183.858C314.088 183.289 314.294 182.743 314.66 182.341C315.026 181.939 315.522 181.712 316.04 181.712C325.164 180.404 334.404 180.405 343.528 181.714H343.531C344.043 181.722 344.531 181.952 344.89 182.353C345.249 182.755 345.449 183.295 345.447 183.858V194.17C345.447 194.739 345.241 195.285 344.875 195.687C344.509 196.089 344.013 196.315 343.495 196.316Z" fill="white"/>
<path d="M343.495 196.316L343.452 196.312C335.39 194.849 326.434 194.85 316.073 196.314H316.069C315.811 196.317 315.554 196.264 315.314 196.158C315.075 196.052 314.856 195.895 314.672 195.696C314.488 195.496 314.341 195.259 314.241 194.997C314.14 194.735 314.088 194.454 314.087 194.17V183.858C314.088 183.289 314.294 182.743 314.66 182.341C315.026 181.939 315.522 181.712 316.04 181.712C325.164 180.404 334.404 180.405 343.528 181.714H343.531C344.043 181.722 344.531 181.952 344.89 182.353C345.249 182.755 345.449 183.295 345.447 183.858V194.17C345.447 194.739 345.241 195.285 344.875 195.687C344.509 196.089 344.013 196.315 343.495 196.316ZM329.419 181.317C324.956 181.308 320.498 181.634 316.076 182.293C315.886 182.29 315.698 182.328 315.522 182.405C315.346 182.482 315.186 182.596 315.051 182.742C314.915 182.887 314.807 183.061 314.733 183.252C314.659 183.444 314.62 183.649 314.619 183.858V194.17C314.619 194.584 314.769 194.981 315.035 195.274C315.302 195.567 315.663 195.731 316.04 195.732C326.409 194.264 335.408 194.264 343.516 195.732C343.889 195.725 344.245 195.558 344.507 195.266C344.768 194.974 344.915 194.58 344.916 194.17V183.858C344.915 183.444 344.766 183.047 344.499 182.754C344.233 182.461 343.872 182.296 343.495 182.296C338.826 181.652 334.125 181.325 329.419 181.317Z" fill="#2BA35A"/>
<path d="M329.767 192.611C331.822 192.611 333.488 190.78 333.488 188.522C333.488 186.263 331.822 184.432 329.767 184.432C327.712 184.432 326.047 186.263 326.047 188.522C326.047 190.78 327.712 192.611 329.767 192.611Z" fill="#2BA35A"/>
<path d="M320.2 186.385H317.01C316.799 186.385 316.596 186.292 316.447 186.128C316.297 185.964 316.213 185.741 316.213 185.509V184.34C316.213 184.108 316.297 183.885 316.447 183.721C316.596 183.557 316.799 183.464 317.01 183.464H320.2C320.411 183.464 320.614 183.557 320.763 183.721C320.913 183.885 320.997 184.108 320.997 184.34V185.509C320.997 185.741 320.913 185.964 320.763 186.128C320.614 186.292 320.411 186.385 320.2 186.385Z" fill="#2BA35A"/>
<path d="M342.524 194.564H339.335C339.123 194.563 338.921 194.471 338.771 194.307C338.622 194.142 338.538 193.92 338.537 193.687V192.519C338.538 192.287 338.622 192.064 338.771 191.9C338.921 191.735 339.123 191.643 339.335 191.643H342.524C342.735 191.643 342.938 191.735 343.087 191.9C343.237 192.064 343.321 192.287 343.321 192.519V193.687C343.321 193.92 343.237 194.142 343.087 194.307C342.938 194.471 342.735 194.563 342.524 194.564Z" fill="#2BA35A"/>
<path d="M338.957 192.051L338.919 192.029C332.009 187.235 323.759 183.408 313.695 180.329L313.691 180.327C313.452 180.22 313.234 180.061 313.051 179.861C312.868 179.661 312.722 179.423 312.623 179.16C312.524 178.898 312.473 178.617 312.473 178.332C312.473 178.048 312.524 177.767 312.624 177.505L316.273 168.004C316.475 167.48 316.857 167.066 317.337 166.851C317.816 166.637 318.354 166.641 318.831 166.862C327.699 169.557 336.212 173.507 344.154 178.612L344.158 178.614C344.626 178.84 344.995 179.26 345.183 179.783C345.372 180.306 345.365 180.89 345.164 181.408L341.515 190.908C341.314 191.432 340.931 191.847 340.451 192.061C339.972 192.275 339.434 192.271 338.957 192.051Z" fill="white"/>
<path d="M338.957 192.051L338.919 192.029C332.009 187.235 323.759 183.408 313.695 180.329L313.691 180.327C313.452 180.22 313.234 180.061 313.051 179.861C312.868 179.661 312.722 179.423 312.623 179.16C312.524 178.898 312.473 178.617 312.473 178.332C312.473 178.048 312.524 177.767 312.624 177.505L316.273 168.004C316.475 167.48 316.857 167.066 317.337 166.851C317.816 166.637 318.354 166.641 318.831 166.862C327.699 169.557 336.212 173.507 344.154 178.612L344.158 178.614C344.626 178.84 344.995 179.26 345.183 179.783C345.372 180.306 345.365 180.89 345.164 181.408L341.515 190.908C341.314 191.432 340.931 191.847 340.451 192.061C339.972 192.275 339.434 192.271 338.957 192.051ZM331.296 172.216C327.188 170.301 322.966 168.696 318.658 167.413C318.485 167.329 318.298 167.283 318.109 167.279C317.92 167.275 317.731 167.312 317.555 167.388C317.379 167.464 317.218 167.578 317.082 167.722C316.946 167.867 316.837 168.04 316.762 168.231L313.113 177.732C312.967 178.114 312.965 178.543 313.107 178.927C313.248 179.311 313.523 179.617 313.87 179.778C323.943 182.858 332.233 186.704 339.183 191.521C339.529 191.675 339.916 191.673 340.261 191.516C340.606 191.358 340.88 191.059 341.026 190.681L344.675 181.18C344.821 180.799 344.823 180.369 344.682 179.985C344.54 179.602 344.265 179.296 343.918 179.134C339.844 176.546 335.629 174.235 331.296 172.216V172.216Z" fill="#2BA35A"/>
<path d="M329.068 183.092C331.123 183.092 332.789 181.261 332.789 179.003C332.789 176.744 331.123 174.913 329.068 174.913C327.013 174.913 325.347 176.744 325.347 179.003C325.347 181.261 327.013 183.092 329.068 183.092Z" fill="#2BA35A"/>
<path d="M321.01 172.945L318.072 171.582C317.877 171.491 317.723 171.32 317.643 171.104C317.564 170.889 317.565 170.648 317.647 170.434L318.06 169.358C318.143 169.144 318.299 168.974 318.495 168.887C318.691 168.799 318.91 168.801 319.105 168.891L322.043 170.254C322.238 170.345 322.392 170.516 322.472 170.732C322.551 170.947 322.55 171.188 322.468 171.402L322.054 172.479C321.972 172.692 321.816 172.862 321.62 172.949C321.424 173.037 321.205 173.035 321.01 172.945Z" fill="#2BA35A"/>
<path d="M338.683 190.021L335.745 188.658C335.55 188.568 335.396 188.396 335.317 188.181C335.237 187.965 335.238 187.724 335.32 187.51L335.734 186.434C335.816 186.22 335.972 186.051 336.168 185.963C336.364 185.876 336.583 185.877 336.778 185.967L339.716 187.33C339.911 187.421 340.065 187.593 340.145 187.808C340.224 188.023 340.223 188.264 340.141 188.478L339.728 189.555C339.645 189.769 339.489 189.938 339.293 190.025C339.097 190.113 338.878 190.111 338.683 190.021Z" fill="#2BA35A"/>
<path d="M346.279 186.405C346.949 185.962 347.522 185.363 347.958 184.651C348.394 183.938 348.683 183.129 348.804 182.281C348.925 181.432 348.875 180.565 348.658 179.74C348.441 178.915 348.062 178.153 347.547 177.506L356.96 159.374L347.11 160.073L339.682 177.185C338.751 178.206 338.193 179.567 338.114 181.011C338.035 182.454 338.441 183.879 339.254 185.015C340.067 186.152 341.232 186.921 342.526 187.177C343.821 187.433 345.157 187.159 346.279 186.405V186.405Z" fill="#FFB6B6"/>
<path d="M418.738 310.013H412.222L409.122 282.388L418.74 282.389L418.738 310.013Z" fill="#FFB6B6"/>
<path d="M420.4 316.955L399.388 316.954V316.662C399.389 314.278 400.25 311.992 401.784 310.307C403.318 308.621 405.398 307.674 407.567 307.674H407.567L420.401 307.674L420.4 316.955Z" fill="#2F2E41"/>
<path d="M374.09 310.013H367.573L364.473 282.388L374.091 282.389L374.09 310.013Z" fill="#FFB6B6"/>
<path d="M375.752 316.955L354.74 316.954V316.662C354.74 314.278 355.602 311.992 357.135 310.307C358.669 308.621 360.749 307.674 362.918 307.674H362.919L375.752 307.674L375.752 316.955Z" fill="#2F2E41"/>
<path d="M357.333 160.153C357.333 160.153 355.541 188.206 359.071 202.334C362.601 216.463 363.231 301.902 363.231 301.902H375.064L385.32 185.601L408.964 302.312L420.235 301.46L414.053 163.932L357.333 160.153Z" fill="#2F2E41"/>
<path d="M409.164 65.5883L400.118 58.3334L384.96 61.9609L380.857 72.676L373.787 76.5286C371.462 77.7954 369.452 79.6636 367.929 81.9726C366.406 84.2817 365.417 86.9626 365.045 89.7849L354.944 166.443L414.053 163.932L421.209 73.6519C421.284 72.7088 421.186 71.7589 420.921 70.8582C420.656 69.9576 420.229 69.1246 419.665 68.4085C419.102 67.6924 418.414 67.1078 417.641 66.6893C416.868 66.2707 416.027 66.0268 415.167 65.9719L409.164 65.5883Z" fill="#E4E4E4"/>
<path d="M370.046 82.5165L364.587 90.605L340.808 170.313L351.955 175.218L369.802 138.075L370.046 82.5165Z" fill="#E4E4E4"/>
<path d="M389.592 53.6462C399.583 53.6462 407.684 44.7439 407.684 33.7625C407.684 22.781 399.583 13.8788 389.592 13.8788C379.6 13.8788 371.5 22.781 371.5 33.7625C371.5 44.7439 379.6 53.6462 389.592 53.6462Z" fill="#2F2E41"/>
<path d="M389.836 54.5458C397.128 54.5458 403.038 48.0496 403.038 40.0361C403.038 32.0226 397.128 25.5264 389.836 25.5264C382.545 25.5264 376.634 32.0226 376.634 40.0361C376.634 48.0496 382.545 54.5458 389.836 54.5458Z" fill="#FFB9B9"/>
<path d="M399.86 38.1552C391.454 34.8227 388.609 32.7755 379.323 38.1552L375.901 23.1081H403.283L399.86 38.1552Z" fill="#2F2E41"/>
<path d="M388.125 25.2577C393.796 25.2577 398.393 20.2051 398.393 13.9724C398.393 7.73963 393.796 2.68701 388.125 2.68701C382.454 2.68701 377.856 7.73963 377.856 13.9724C377.856 20.2051 382.454 25.2577 388.125 25.2577Z" fill="#2F2E41"/>
<path d="M375.901 11.2854C375.902 8.38712 376.918 5.6007 378.739 3.50438C380.56 1.40807 383.046 0.162834 385.68 0.0271247C385.517 0.0186542 385.356 0 385.191 0C382.468 0 379.856 1.18899 377.93 3.3054C376.004 5.42181 374.923 8.29228 374.923 11.2853C374.923 14.2784 376.004 17.1489 377.93 19.2653C379.856 21.3817 382.468 22.5707 385.191 22.5707C385.356 22.5707 385.517 22.552 385.68 22.5436C383.046 22.4078 380.56 21.1626 378.739 19.0663C376.918 16.97 375.902 14.1836 375.901 11.2854Z" fill="#2F2E41"/>
<path opacity="0.1" d="M413.578 87.107L409.894 127.465L396.885 155.642L413.578 87.107Z" fill="black"/>
<path d="M24.1847 211.318H20.9955V214.239H24.1847V211.318Z" fill="#F0F0F0"/>
<path d="M325.844 214.239H319.56V211.318H325.844V214.239ZM313.276 214.239H306.991V211.318H313.276V214.239ZM300.706 214.239H294.422V211.318H300.706V214.239ZM288.137 214.239H281.852V211.318H288.137V214.239ZM275.568 214.239H269.284V211.318H275.568V214.239ZM262.999 214.239H256.714V211.318H262.999L262.999 214.239ZM250.43 214.239H244.145V211.318H250.43V214.239ZM237.86 214.239H231.576V211.318H237.86V214.239ZM225.291 214.239H219.007V211.318H225.291V214.239ZM212.722 214.239H206.438V211.318H212.722L212.722 214.239ZM200.153 214.239H193.868V211.318H200.153L200.153 214.239ZM187.584 214.239H181.299V211.318H187.584L187.584 214.239ZM175.015 214.239H168.73V211.318H175.015L175.015 214.239ZM162.445 214.239H156.161V211.318H162.445L162.445 214.239ZM149.876 214.239H143.592V211.318H149.876L149.876 214.239ZM137.307 214.239H131.023V211.318H137.307L137.307 214.239ZM124.738 214.239H118.453V211.318H124.738L124.738 214.239ZM112.169 214.239H105.884V211.318H112.169L112.169 214.239ZM99.5995 214.239H93.3152V211.318H99.5996L99.5995 214.239ZM87.0304 214.239H80.7461V211.318H87.0305L87.0304 214.239ZM74.4613 214.239H68.177V211.318H74.4614L74.4613 214.239ZM61.8921 214.239H55.6076V211.318H61.8923L61.8921 214.239ZM49.323 214.239H43.0385V211.318H49.3232L49.323 214.239ZM36.7539 214.239H30.4694V211.318H36.754L36.7539 214.239Z" fill="#F0F0F0"/>
<path d="M24.1847 137.127H20.9955V140.048H24.1847V137.127Z" fill="#F0F0F0"/>
<path d="M325.844 140.048H319.56V137.127H325.844V140.048ZM313.276 140.048H306.991V137.127H313.276V140.048ZM300.706 140.048H294.422V137.127H300.706V140.048ZM288.137 140.048H281.852V137.127H288.137V140.048ZM275.568 140.048H269.284V137.127H275.568V140.048ZM262.999 140.048H256.714V137.127H262.999L262.999 140.048ZM250.43 140.048H244.145V137.127H250.43V140.048ZM237.86 140.048H231.576V137.127H237.86V140.048ZM225.291 140.048H219.007V137.127H225.291V140.048ZM212.722 140.048H206.438V137.127H212.722L212.722 140.048ZM200.153 140.048H193.868V137.127H200.153L200.153 140.048ZM187.584 140.048H181.299V137.127H187.584L187.584 140.048ZM175.015 140.048H168.73V137.127H175.015L175.015 140.048ZM162.445 140.048H156.161V137.127H162.445L162.445 140.048ZM149.876 140.048H143.592V137.127H149.876L149.876 140.048ZM137.307 140.048H131.023V137.127H137.307L137.307 140.048ZM124.738 140.048H118.453V137.127H124.738L124.738 140.048ZM112.169 140.048H105.884V137.127H112.169L112.169 140.048ZM99.5995 140.048H93.3152V137.127H99.5996L99.5995 140.048ZM87.0304 140.048H80.7461V137.127H87.0305L87.0304 140.048ZM74.4613 140.048H68.177V137.127H74.4614L74.4613 140.048ZM61.8921 140.048H55.6076V137.127H61.8923L61.8921 140.048ZM49.323 140.048H43.0385V137.127H49.3232L49.323 140.048ZM36.7539 140.048H30.4694V137.127H36.754L36.7539 140.048Z" fill="#F0F0F0"/>
<path d="M24.1847 62.9372H20.9955V65.858H24.1847V62.9372Z" fill="#F0F0F0"/>
<path d="M325.844 65.858H319.56V62.9371H325.844V65.858ZM313.276 65.858H306.991V62.9371H313.276V65.858ZM300.706 65.858H294.422V62.9371H300.706V65.858ZM288.137 65.858H281.852V62.9371H288.137V65.858ZM275.568 65.858H269.284V62.9371H275.568V65.858ZM262.999 65.858H256.714V62.9371H262.999L262.999 65.858ZM250.43 65.858H244.145V62.9371H250.43V65.858ZM237.86 65.858H231.576V62.9371H237.86V65.858ZM225.291 65.858H219.007V62.9371H225.291V65.858ZM212.722 65.858H206.438V62.9371H212.722L212.722 65.858ZM200.153 65.858H193.868V62.9371H200.153L200.153 65.858ZM187.584 65.858H181.299V62.9371H187.584L187.584 65.858ZM175.015 65.858H168.73V62.9371H175.015L175.015 65.858ZM162.445 65.858H156.161V62.9371H162.445L162.445 65.858ZM149.876 65.858H143.592V62.9371H149.876L149.876 65.858ZM137.307 65.858H131.023V62.9371H137.307L137.307 65.858ZM124.738 65.858H118.453V62.9371H124.738L124.738 65.858ZM112.169 65.858H105.884V62.9371H112.169L112.169 65.858ZM99.5995 65.858H93.3152V62.9371H99.5996L99.5995 65.858ZM87.0304 65.858H80.7461V62.9371H87.0305L87.0304 65.858ZM74.4613 65.858H68.177V62.9371H74.4614L74.4613 65.858ZM61.8921 65.858H55.6076V62.9371H61.8923L61.8921 65.858ZM49.323 65.858H43.0385V62.9371H49.3232L49.323 65.858ZM36.7539 65.858H30.4694V62.9371H36.754L36.7539 65.858Z" fill="#F0F0F0"/>
<path d="M124.91 212.194H98.8649V317.345H124.91V212.194Z" fill="#3F3D56"/>
<path d="M129.694 212.194H103.649V317.345H129.694V212.194Z" fill="#2BA35A"/>
<path d="M186.567 138.004H160.522V317.346H186.567V138.004Z" fill="#3F3D56"/>
<path d="M191.351 138.004H165.306V317.346H191.351V138.004Z" fill="#2BA35A"/>
<path d="M248.225 63.8134H222.18V317.346H248.225V63.8134Z" fill="#3F3D56"/>
<path d="M253.009 63.8134H226.964V317.346H253.009V63.8134Z" fill="#2BA35A"/>
<path d="M21.2613 71.4077C24.784 71.4077 27.6397 68.2692 27.6397 64.3976C27.6397 60.526 24.784 57.3875 21.2613 57.3875C17.7386 57.3875 14.8829 60.526 14.8829 64.3976C14.8829 68.2692 17.7386 71.4077 21.2613 71.4077Z" fill="#F0F0F0"/>
<path d="M21.2613 145.598C24.784 145.598 27.6397 142.459 27.6397 138.588C27.6397 134.716 24.784 131.578 21.2613 131.578C17.7386 131.578 14.8829 134.716 14.8829 138.588C14.8829 142.459 17.7386 145.598 21.2613 145.598Z" fill="#F0F0F0"/>
<path d="M21.2613 219.788C24.784 219.788 27.6397 216.65 27.6397 212.778C27.6397 208.907 24.784 205.768 21.2613 205.768C17.7386 205.768 14.8829 208.907 14.8829 212.778C14.8829 216.65 17.7386 219.788 21.2613 219.788Z" fill="#F0F0F0"/>
<path d="M472 316.691H0V318H472V316.691Z" fill="#3F3D56"/>
<path d="M398.243 183.464L398.199 183.46C390.138 181.997 381.182 181.998 370.821 183.462H370.817C370.558 183.465 370.302 183.412 370.062 183.306C369.822 183.2 369.604 183.043 369.42 182.844C369.235 182.644 369.089 182.407 368.989 182.145C368.888 181.883 368.836 181.602 368.835 181.318V171.006C368.835 170.437 369.041 169.891 369.407 169.489C369.773 169.087 370.27 168.861 370.787 168.86C379.911 167.552 389.151 167.553 398.275 168.862H398.279C398.791 168.87 399.279 169.1 399.638 169.501C399.996 169.903 400.197 170.443 400.195 171.006V181.318C400.195 181.887 399.989 182.433 399.623 182.835C399.257 183.237 398.76 183.464 398.243 183.464Z" fill="white"/>
<path d="M398.243 183.464L398.199 183.46C390.138 181.997 381.182 181.998 370.821 183.462H370.817C370.558 183.465 370.302 183.412 370.062 183.306C369.822 183.2 369.604 183.043 369.42 182.844C369.235 182.644 369.089 182.407 368.989 182.145C368.888 181.883 368.836 181.602 368.835 181.318V171.006C368.835 170.437 369.041 169.891 369.407 169.489C369.773 169.087 370.27 168.861 370.787 168.86C379.911 167.552 389.151 167.553 398.275 168.862H398.279C398.791 168.87 399.279 169.1 399.638 169.501C399.996 169.903 400.197 170.443 400.195 171.006V181.318C400.195 181.887 399.989 182.433 399.623 182.835C399.257 183.237 398.76 183.464 398.243 183.464ZM384.166 168.465C379.704 168.457 375.246 168.783 370.823 169.441C370.634 169.438 370.446 169.476 370.27 169.553C370.094 169.63 369.934 169.744 369.798 169.89C369.663 170.035 369.555 170.209 369.481 170.4C369.407 170.592 369.368 170.798 369.366 171.006V181.318C369.367 181.732 369.517 182.129 369.783 182.422C370.049 182.715 370.41 182.88 370.787 182.88C381.157 181.412 390.156 181.412 398.263 182.88C398.637 182.873 398.992 182.706 399.254 182.414C399.516 182.122 399.663 181.728 399.664 181.318V171.006C399.663 170.592 399.513 170.195 399.247 169.902C398.981 169.609 398.619 169.444 398.243 169.444C393.573 168.8 388.872 168.474 384.166 168.465Z" fill="#2BA35A"/>
<path d="M384.515 179.759C386.57 179.759 388.236 177.928 388.236 175.67C388.236 173.411 386.57 171.581 384.515 171.581C382.46 171.581 380.794 173.411 380.794 175.67C380.794 177.928 382.46 179.759 384.515 179.759Z" fill="#2BA35A"/>
<path d="M374.947 173.533H371.758C371.547 173.533 371.344 173.441 371.195 173.276C371.045 173.112 370.961 172.889 370.961 172.657V171.489C370.961 171.256 371.045 171.034 371.195 170.869C371.344 170.705 371.547 170.613 371.758 170.612H374.947C375.159 170.613 375.361 170.705 375.511 170.869C375.66 171.034 375.744 171.256 375.745 171.489V172.657C375.744 172.889 375.66 173.112 375.511 173.276C375.361 173.441 375.159 173.533 374.947 173.533Z" fill="#2BA35A"/>
<path d="M397.272 181.712H394.082C393.871 181.711 393.668 181.619 393.519 181.455C393.369 181.29 393.285 181.068 393.285 180.835V179.667C393.285 179.435 393.369 179.212 393.519 179.048C393.668 178.883 393.871 178.791 394.082 178.791H397.272C397.483 178.791 397.686 178.883 397.835 179.048C397.985 179.212 398.069 179.435 398.069 179.667V180.835C398.069 181.068 397.985 181.29 397.835 181.455C397.686 181.619 397.483 181.711 397.272 181.712Z" fill="#2BA35A"/>
<path d="M392.267 169.946C392.212 169.09 392.329 168.23 392.609 167.428C392.89 166.627 393.326 165.902 393.889 165.306C394.452 164.71 395.126 164.257 395.865 163.978C396.604 163.7 397.39 163.603 398.167 163.694L406.266 144.812L411.403 154.075L402.924 170.586C402.698 172.01 402.004 173.294 400.975 174.194C399.945 175.094 398.651 175.547 397.337 175.469C396.023 175.39 394.782 174.784 393.847 173.766C392.913 172.748 392.351 171.389 392.267 169.946Z" fill="#FFB6B6"/>
<path d="M414.287 71.1754L417.623 66.3946C417.623 66.3946 425.75 64.5754 427.131 76.8439L426.261 131.386L408.452 162.193L396.885 158.947L412.008 122.35L414.287 71.1754Z" fill="#E4E4E4"/>
</svg>
