<?xml version="1.0" standalone="no"?><svg xmlns="http://www.w3.org/2000/svg" viewBox="0 0 1440 320"><path fill="#31A05D" fill-opacity="1" d="M0,128L12,149.3C24,171,48,213,72,229.3C96,245,120,235,144,224C168,213,192,203,216,181.3C240,160,264,128,288,138.7C312,149,336,203,360,208C384,213,408,171,432,128C456,85,480,43,504,37.3C528,32,552,64,576,69.3C600,75,624,53,648,37.3C672,21,696,11,720,26.7C744,43,768,85,792,128C816,171,840,213,864,234.7C888,256,912,256,936,218.7C960,181,984,107,1008,101.3C1032,96,1056,160,1080,186.7C1104,213,1128,203,1152,181.3C1176,160,1200,128,1224,112C1248,96,1272,96,1296,128C1320,160,1344,224,1368,234.7C1392,245,1416,203,1428,181.3L1440,160L1440,320L1428,320C1416,320,1392,320,1368,320C1344,320,1320,320,1296,320C1272,320,1248,320,1224,320C1200,320,1176,320,1152,320C1128,320,1104,320,1080,320C1056,320,1032,320,1008,320C984,320,960,320,936,320C912,320,888,320,864,320C840,320,816,320,792,320C768,320,744,320,720,320C696,320,672,320,648,320C624,320,600,320,576,320C552,320,528,320,504,320C480,320,456,320,432,320C408,320,384,320,360,320C336,320,312,320,288,320C264,320,240,320,216,320C192,320,168,320,144,320C120,320,96,320,72,320C48,320,24,320,12,320L0,320Z"></path></svg>